<?xml version="1.0" ?><svg viewBox="0 0 64 64" xmlns="http://www.w3.org/2000/svg"><defs><style>.cls-1{fill:#ccc;}.cls-2{fill:#f5f5f5;}.cls-3{fill:#7fcdee;}.cls-4{fill:#a67c52;}.cls-5{fill:#b89675;}.cls-6{fill:#b2e1f5;}.cls-7{fill:#8892a0;}.cls-8{fill:#b8bec6;}.cls-9{fill:#f9d18b;}.cls-10{fill:#fff;}.cls-11{fill:none;stroke:#000;stroke-linejoin:round;stroke-width:2px;}</style></defs><title/><g data-name="Layer 23" id="Layer_23"><rect class="cls-1" height="32" width="48" x="4" y="22"/><path class="cls-2" d="M4,22V48.927A34.093,34.093,0,0,0,12.5,50,34.639,34.639,0,0,0,46.309,22Z"/><rect class="cls-3" height="20" width="20" x="28" y="28"/><rect class="cls-4" height="18" width="16" x="8" y="36"/><path class="cls-5" d="M8,49.7A33.978,33.978,0,0,0,24,48V36H8Z"/><path class="cls-6" d="M44.536,28H28V46.269A34.928,34.928,0,0,0,44.536,28Z"/><rect class="cls-7" height="13" width="52" x="2" y="9"/><path class="cls-8" d="M2,22H46.309a35.526,35.526,0,0,0,.176-13H2Z"/><rect class="cls-7" height="4" width="4" x="46" y="54"/><rect class="cls-4" height="16" width="22" x="17" y="2"/><rect class="cls-9" height="8" width="10" x="23" y="6"/><rect class="cls-4" height="4" width="16" x="8" y="28"/><rect class="cls-7" height="4" width="32" x="2" y="54"/><rect class="cls-4" height="10" width="12" x="34" y="52"/><path class="cls-5" d="M34,52v7.471A6.251,6.251,0,0,0,36.5,60c3.7,0,6.838-3.342,8.006-8Z"/><rect class="cls-4" height="10" width="12" x="50" y="52"/><path class="cls-5" d="M50,52v7.471A6.251,6.251,0,0,0,52.5,60c3.7,0,6.838-3.342,8.006-8Z"/><rect class="cls-10" height="4" width="4" x="54" y="52"/><rect class="cls-10" height="4" width="4" x="38" y="52"/><rect class="cls-4" height="10" width="12" x="42" y="42"/><path class="cls-5" d="M42,42v7.471A6.251,6.251,0,0,0,44.5,50c3.7,0,6.838-3.342,8.006-8Z"/><rect class="cls-10" height="4" width="4" x="46" y="42"/><polyline class="cls-11" points="34 58 2 58 2 54 34 54"/><line class="cls-11" x1="4" x2="4" y1="54" y2="22"/><line class="cls-11" x1="52" x2="52" y1="42" y2="22"/><rect class="cls-11" height="10" width="12" x="50" y="52"/><polyline class="cls-11" points="39 9 54 9 54 22 2 22 2 9 17 9"/><rect class="cls-11" height="16" width="22" x="17" y="2"/><rect class="cls-11" height="8" width="10" x="23" y="6"/><polyline class="cls-11" points="23 6 28 10 33 6"/><polyline class="cls-11" points="54 52 54 56 58 56 58 52"/><rect class="cls-11" height="10" width="12" x="34" y="52"/><polyline class="cls-11" points="38 52 38 56 42 56 42 52"/><rect class="cls-11" height="10" width="12" x="42" y="42"/><polyline class="cls-11" points="46 42 46 46 50 46 50 42"/><polyline class="cls-11" points="8 54 8 36 24 36 24 54"/><line class="cls-11" x1="12" x2="12" y1="43" y2="47"/><rect class="cls-11" height="4" width="16" x="8" y="28"/><polyline class="cls-11" points="42 48 28 48 28 28 48 28 48 42"/><line class="cls-11" x1="46" x2="50" y1="58" y2="58"/></g></svg>